<svg xmlns="http://www.w3.org/2000/svg" xmlns:xlink="http://www.w3.org/1999/xlink" width="1500" zoomAndPan="magnify" viewBox="0 0 1125 1124.99995" height="1500" preserveAspectRatio="xMidYMid meet" version="1.0"><defs><clipPath id="ee7e4268e9"><path d="M 88.332031 176.664062 L 1036.332031 176.664062 L 1036.332031 1124.664062 L 88.332031 1124.664062 Z M 88.332031 176.664062 " clip-rule="nonzero"/></clipPath><clipPath id="affcc2340b"><path d="M 145 291 L 980 291 L 980 451.6875 L 145 451.6875 Z M 145 291 " clip-rule="nonzero"/></clipPath><clipPath id="27608b7030"><path d="M 336 57.9375 L 789 57.9375 L 789 341 L 336 341 Z M 336 57.9375 " clip-rule="nonzero"/></clipPath></defs><g clip-path="url(#ee7e4268e9)"><path fill="#a6a6a6" d="M 1020.972656 1124.59375 L 103.765625 1124.59375 C 95.464844 1124.59375 88.730469 1117.863281 88.730469 1109.558594 L 88.730469 1023.875 C 88.730469 881.324219 204.707031 765.351562 347.257812 765.351562 L 777.480469 765.351562 C 920.03125 765.351562 1036.007812 881.324219 1036.007812 1023.875 L 1036.007812 1109.558594 C 1036.007812 1117.863281 1029.277344 1124.59375 1020.972656 1124.59375 Z M 562.371094 724.925781 C 411.210938 724.925781 288.238281 601.953125 288.238281 450.792969 C 288.238281 299.636719 411.210938 176.664062 562.371094 176.664062 C 713.527344 176.664062 836.5 299.636719 836.5 450.792969 C 836.5 601.953125 713.527344 724.925781 562.371094 724.925781 Z M 562.371094 724.925781 " fill-opacity="1" fill-rule="nonzero"/></g><g clip-path="url(#affcc2340b)"><path fill="#000000" d="M 979.34375 361.492188 C 979.34375 376.34375 949.078125 401.042969 863.773438 421.703125 C 783.441406 441.148438 676.382812 451.859375 562.378906 451.859375 C 448.375 451.859375 341.320312 441.148438 260.984375 421.703125 C 175.679688 401.042969 145.417969 376.34375 145.417969 361.492188 C 145.417969 341.214844 196.910156 311.300781 309.316406 291.195312 L 300.597656 337.25 L 299.867188 342.082031 L 299.867188 344.101562 C 299.867188 402.710938 471.691406 418.226562 562.519531 418.226562 C 653.347656 418.226562 825.171875 402.710938 825.171875 344.101562 L 824.40625 337.839844 L 815.582031 291.195312 C 927.847656 311.300781 979.34375 341.214844 979.34375 361.492188 Z M 979.34375 361.492188 " fill-opacity="1" fill-rule="nonzero"/></g><path fill="#000000" d="M 797.164062 344.589844 C 796.121094 348.34375 784.203125 361.25 735.003906 373.144531 C 689.066406 384.277344 627.773438 390.535156 562.378906 390.535156 C 496.984375 390.535156 435.691406 384.414062 389.757812 373.144531 C 340.554688 361.25 328.636719 348.34375 327.59375 344.589844 L 327.976562 342.152344 L 330.546875 328.449219 C 377.976562 359.753906 493.859375 368.726562 562.378906 368.726562 C 630.902344 368.726562 746.78125 359.578125 794.210938 328.449219 L 796.78125 342.152344 Z M 797.164062 344.589844 " fill-opacity="1" fill-rule="nonzero"/><g clip-path="url(#27608b7030)"><path fill="#000000" d="M 788.234375 296.96875 L 787.539062 296.96875 C 787.539062 299.542969 777.117188 312.550781 728.15625 324.34375 C 683.992188 335.023438 625.167969 340.902344 562.378906 340.902344 C 499.59375 340.902344 440.765625 335.023438 396.601562 324.34375 C 347.78125 312.550781 337.21875 299.542969 337.21875 296.96875 L 336.523438 296.96875 L 368.492188 128.128906 C 368.957031 125.6875 369.523438 123.265625 370.199219 120.871094 C 370.871094 118.476562 371.648438 116.117188 372.523438 113.789062 C 373.402344 111.460938 374.378906 109.175781 375.453125 106.933594 C 376.527344 104.691406 377.695312 102.5 378.960938 100.355469 C 380.226562 98.214844 381.578125 96.132812 383.023438 94.105469 C 384.46875 92.082031 385.996094 90.125 387.609375 88.230469 C 389.222656 86.339844 390.914062 84.519531 392.683594 82.773438 C 394.453125 81.027344 396.296875 79.359375 398.210938 77.773438 C 400.125 76.1875 402.101562 74.6875 404.144531 73.273438 C 406.1875 71.855469 408.289062 70.53125 410.449219 69.296875 C 412.605469 68.066406 414.8125 66.925781 417.070312 65.882812 C 419.324219 64.839844 421.621094 63.898438 423.960938 63.054688 C 426.296875 62.210938 428.667969 61.46875 431.070312 60.832031 C 433.472656 60.191406 435.894531 59.660156 438.34375 59.230469 C 440.792969 58.800781 443.253906 58.476562 445.730469 58.261719 C 448.203125 58.046875 450.683594 57.9375 453.171875 57.9375 L 671.589844 57.9375 C 674.074219 57.9375 676.554688 58.046875 679.03125 58.261719 C 681.507812 58.476562 683.96875 58.800781 686.414062 59.230469 C 688.863281 59.660156 691.289062 60.191406 693.691406 60.832031 C 696.089844 61.46875 698.460938 62.210938 700.800781 63.054688 C 703.136719 63.898438 705.433594 64.839844 707.691406 65.882812 C 709.945312 66.925781 712.152344 68.066406 714.3125 69.296875 C 716.46875 70.53125 718.570312 71.855469 720.613281 73.273438 C 722.65625 74.6875 724.636719 76.1875 726.550781 77.773438 C 728.464844 79.363281 730.304688 81.027344 732.078125 82.773438 C 733.847656 84.519531 735.539062 86.339844 737.152344 88.230469 C 738.765625 90.125 740.292969 92.082031 741.738281 94.105469 C 743.179688 96.132812 744.535156 98.214844 745.796875 100.355469 C 747.0625 102.5 748.230469 104.691406 749.304688 106.933594 C 750.382812 109.175781 751.355469 111.460938 752.234375 113.789062 C 753.113281 116.117188 753.886719 118.476562 754.558594 120.871094 C 755.234375 123.265625 755.804688 125.6875 756.269531 128.128906 Z M 788.234375 296.96875 " fill-opacity="1" fill-rule="nonzero"/></g></svg>